<svg width="25" height="26" viewBox="0 0 25 26" fill="none" xmlns="http://www.w3.org/2000/svg">
<path d="M1.38889 0H9.72222C10.4861 0 11.1111 0.627577 11.1111 1.39462V9.76231C11.1111 10.5294 10.4861 11.1569 9.72222 11.1569H1.38889C0.625 11.1569 0 10.5294 0 9.76231V1.39462C0 0.627577 0.625 0 1.38889 0ZM15.2778 0H23.6111C24.375 0 25 0.627577 25 1.39462V9.76231C25 10.5294 24.375 11.1569 23.6111 11.1569H15.2778C14.5139 11.1569 13.8889 10.5294 13.8889 9.76231V1.39462C13.8889 0.627577 14.5139 0 15.2778 0ZM1.38889 13.9462H9.72222C10.4861 13.9462 11.1111 14.5737 11.1111 15.3408V23.7085C11.1111 24.4755 10.4861 25.1031 9.72222 25.1031H1.38889C0.625 25.1031 0 24.4755 0 23.7085V15.3408C0 14.5737 0.625 13.9462 1.38889 13.9462ZM19.4444 13.9462C18.6806 13.9462 18.0556 14.5737 18.0556 15.3408V18.13H15.2778C14.5139 18.13 13.8889 18.7576 13.8889 19.5246C13.8889 20.2917 14.5139 20.9192 15.2778 20.9192H18.0556V23.7085C18.0556 24.4755 18.6806 25.1031 19.4444 25.1031C20.2083 25.1031 20.8333 24.4755 20.8333 23.7085V20.9192H23.6111C24.375 20.9192 25 20.2917 25 19.5246C25 18.7576 24.375 18.13 23.6111 18.13H20.8333V15.3408C20.8333 14.5737 20.2083 13.9462 19.4444 13.9462Z" fill="#F9F9FA"/>
</svg>
