<svg width="21" height="20" viewBox="0 0 21 20" fill="none" xmlns="http://www.w3.org/2000/svg">
<path d="M15.3509 0.630137C15.7747 0.226661 16.3494 0 16.9486 0C17.5479 0 18.1225 0.226661 18.5463 0.630137L20.3384 2.33684C20.762 2.74044 21 3.28776 21 3.85845C21 4.42914 20.762 4.97646 20.3384 5.38006L11.2991 13.9889C10.8754 14.3925 10.3007 14.6194 9.7014 14.6195H7.90936C7.31002 14.6195 6.73523 14.3927 6.31143 13.9891C5.88763 13.5855 5.64954 13.0381 5.64954 12.4673V10.7606C5.64967 10.1898 5.88784 9.64249 6.31167 9.23896L15.3509 0.630137ZM15.1566 3.85845L16.9486 5.56515L18.7407 3.85845L19.5395 4.61925L16.9486 2.15175L15.1566 3.85845V3.85845ZM15.3509 7.08676L13.5589 5.38006L7.90936 10.7606V12.4673H9.7014L15.3509 7.08676ZM0 4.93455C0 4.07835 0.357131 3.25722 0.992828 2.65179C1.62852 2.04637 2.49071 1.70624 3.38973 1.70624H6.77945C7.07912 1.70624 7.36652 1.81962 7.57842 2.02142C7.79032 2.22323 7.90936 2.49694 7.90936 2.78234C7.90936 3.06774 7.79032 3.34146 7.57842 3.54326C7.36652 3.74507 7.07912 3.85845 6.77945 3.85845H3.38973C3.09006 3.85845 2.80266 3.97182 2.59076 4.17363C2.37886 4.37544 2.25982 4.64915 2.25982 4.93455V16.7717C2.25982 17.0571 2.37886 17.3308 2.59076 17.5326C2.80266 17.7344 3.09006 17.8478 3.38973 17.8478H15.8187C16.1184 17.8478 16.4058 17.7344 16.6177 17.5326C16.8296 17.3308 16.9486 17.0571 16.9486 16.7717V13.5434C16.9486 13.258 17.0677 12.9843 17.2796 12.7825C17.4915 12.5807 17.7789 12.4673 18.0785 12.4673C18.3782 12.4673 18.6656 12.5807 18.8775 12.7825C19.0894 12.9843 19.2084 13.258 19.2084 13.5434V16.7717C19.2084 17.6279 18.8513 18.449 18.2156 19.0544C17.5799 19.6599 16.7177 20 15.8187 20H3.38973C2.49071 20 1.62852 19.6599 0.992828 19.0544C0.357131 18.449 0 17.6279 0 16.7717V4.93455Z" fill="black"/>
</svg>
