<svg width="27" height="20" viewBox="0 0 27 20" fill="none" xmlns="http://www.w3.org/2000/svg">
<path d="M25.2612 8.66543C25.8706 9.46257 25.8706 10.5387 25.2612 11.3346C23.3416 13.8404 18.7362 19 13.3593 19C7.98246 19 3.37703 13.8404 1.45746 11.3346C1.16096 10.9529 1 10.4833 1 10C1 9.51668 1.16096 9.04712 1.45746 8.66543C3.37703 6.15957 7.98246 1 13.3593 1C18.7362 1 23.3416 6.15957 25.2612 8.66543V8.66543Z" stroke="black" stroke-width="2" stroke-linecap="round" stroke-linejoin="round"/>
<path d="M13.3591 13.8571C15.4893 13.8571 17.2162 12.1302 17.2162 9.99997C17.2162 7.86972 15.4893 6.14282 13.3591 6.14282C11.2289 6.14282 9.50195 7.86972 9.50195 9.99997C9.50195 12.1302 11.2289 13.8571 13.3591 13.8571Z" stroke="black" stroke-width="2" stroke-linecap="round" stroke-linejoin="round"/>
</svg>
