<svg width="18" height="21" viewBox="0 0 18 21" fill="none" xmlns="http://www.w3.org/2000/svg">
<path fill-rule="evenodd" clip-rule="evenodd" d="M13.0909 3.23077H18V4.84615H16.3636V19.3846L14.7273 21H3.27273L1.63636 19.3846V4.84615H0V3.23077H4.90909V1.61538C4.90909 1.18696 5.08149 0.776078 5.38837 0.473135C5.69525 0.170192 6.11146 0 6.54545 0H11.4545C11.8885 0 12.3048 0.170192 12.6116 0.473135C12.9185 0.776078 13.0909 1.18696 13.0909 1.61538V3.23077ZM11.4545 1.61538H6.54545V3.23077H11.4545V1.61538ZM3.27273 19.3846H14.7273V4.84615H3.27273V19.3846ZM6.54545 6.46154H4.90909V17.7692H6.54545V6.46154ZM8.18182 6.46154H9.81818V17.7692H8.18182V6.46154ZM11.4545 6.46154H13.0909V17.7692H11.4545V6.46154Z" fill="black"/>
</svg>
