<svg width="22" height="20" viewBox="0 0 22 20" fill="none" xmlns="http://www.w3.org/2000/svg">
<path d="M16.0819 0.630137C16.5259 0.226661 17.1279 0 17.7557 0C18.3835 0 18.9855 0.226661 19.4295 0.630137L21.3068 2.33684C21.7507 2.74044 22 3.28776 22 3.85845C22 4.42914 21.7507 4.97646 21.3068 5.38006L11.8371 13.9889C11.3933 14.3925 10.7912 14.6194 10.1634 14.6195H8.286C7.65812 14.6195 7.05595 14.3927 6.61197 13.9891C6.16799 13.5855 5.91857 13.0381 5.91857 12.4673V10.7606C5.9187 10.1898 6.16822 9.64249 6.61223 9.23896L16.0819 0.630137ZM15.8783 3.85845L17.7557 5.56515L19.6331 3.85845L20.47 4.61925L17.7557 2.15175L15.8783 3.85845V3.85845ZM16.0819 7.08676L14.2046 5.38006L8.286 10.7606V12.4673H10.1634L16.0819 7.08676ZM0 4.93455C0 4.07835 0.374137 3.25722 1.04011 2.65179C1.70607 2.04637 2.60932 1.70624 3.55114 1.70624H7.10228C7.41622 1.70624 7.71731 1.81962 7.93929 2.02142C8.16128 2.22323 8.286 2.49694 8.286 2.78234C8.286 3.06774 8.16128 3.34146 7.93929 3.54326C7.71731 3.74507 7.41622 3.85845 7.10228 3.85845H3.55114C3.2372 3.85845 2.93612 3.97182 2.71413 4.17363C2.49214 4.37544 2.36743 4.64915 2.36743 4.93455V16.7717C2.36743 17.0571 2.49214 17.3308 2.71413 17.5326C2.93612 17.7344 3.2372 17.8478 3.55114 17.8478H16.572C16.8859 17.8478 17.187 17.7344 17.409 17.5326C17.631 17.3308 17.7557 17.0571 17.7557 16.7717V13.5434C17.7557 13.258 17.8804 12.9843 18.1024 12.7825C18.3244 12.5807 18.6255 12.4673 18.9394 12.4673C19.2534 12.4673 19.5544 12.5807 19.7764 12.7825C19.9984 12.9843 20.1231 13.258 20.1231 13.5434V16.7717C20.1231 17.6279 19.749 18.449 19.083 19.0544C18.4171 19.6599 17.5138 20 16.572 20H3.55114C2.60932 20 1.70607 19.6599 1.04011 19.0544C0.374137 18.449 0 17.6279 0 16.7717V4.93455Z" fill="#F9F9FA"/>
</svg>
