<svg width="19" height="19" viewBox="0 0 19 19" fill="none" xmlns="http://www.w3.org/2000/svg">
<path d="M0 16.15C0 16.9059 0.33363 17.6308 0.927495 18.1653C1.52136 18.6997 2.32681 19 3.16667 19H15.8333C16.6732 19 17.4786 18.6997 18.0725 18.1653C18.6664 17.6308 19 16.9059 19 16.15V6.4866C18.9995 5.73112 18.6658 5.00672 18.0722 4.4726L14.0315 0.8341C13.4376 0.299933 12.6323 -9.05361e-05 11.7927 2.04937e-08H3.16667C2.32681 2.04937e-08 1.52136 0.300267 0.927495 0.834746C0.33363 1.36922 0 2.09413 0 2.85V16.15ZM3.16667 17.1C2.88672 17.1 2.61823 16.9999 2.42028 16.8218C2.22232 16.6436 2.11111 16.402 2.11111 16.15V2.85C2.11111 2.59804 2.22232 2.35641 2.42028 2.17825C2.61823 2.00009 2.88672 1.9 3.16667 1.9H10.5556V4.75C10.5556 5.50587 10.8892 6.23078 11.4831 6.76525C12.0769 7.29973 12.8824 7.6 13.7222 7.6H16.8889V16.15C16.8889 16.402 16.7777 16.6436 16.5797 16.8218C16.3818 16.9999 16.1133 17.1 15.8333 17.1H3.16667ZM16.4519 5.7H13.7222C13.4423 5.7 13.1738 5.59991 12.9758 5.42175C12.7779 5.24359 12.6667 5.00196 12.6667 4.75V2.2933L16.4519 5.7Z" fill="#F9F9FA"/>
</svg>
