<svg width="29" height="20" viewBox="0 0 29 20" fill="none" xmlns="http://www.w3.org/2000/svg">
<path fill-rule="evenodd" clip-rule="evenodd" d="M2.83333 0C2.08189 0 1.36122 0.299742 0.829864 0.833286C0.298511 1.36683 0 2.09047 0 2.84502V17.0701C0 17.8246 0.298511 18.5483 0.829864 19.0818C1.36122 19.6154 2.08189 19.9151 2.83333 19.9151H25.5C26.2514 19.9151 26.9721 19.6154 27.5035 19.0818C28.0348 18.5483 28.3333 17.8246 28.3333 17.0701V2.84502C28.3333 2.09047 28.0348 1.36683 27.5035 0.833286C26.9721 0.299742 26.2514 0 25.5 0H2.83333ZM4.25 2.84502C3.87428 2.84502 3.51394 2.99489 3.24827 3.26166C2.98259 3.52843 2.83333 3.89025 2.83333 4.26753C2.83333 4.6448 2.98259 5.00662 3.24827 5.27339C3.51394 5.54016 3.87428 5.69003 4.25 5.69003H5.66667C6.04239 5.69003 6.40272 5.54016 6.6684 5.27339C6.93408 5.00662 7.08333 4.6448 7.08333 4.26753C7.08333 3.89025 6.93408 3.52843 6.6684 3.26166C6.40272 2.99489 6.04239 2.84502 5.66667 2.84502H4.25ZM11.3333 2.84502C10.9576 2.84502 10.5973 2.99489 10.3316 3.26166C10.0659 3.52843 9.91667 3.89025 9.91667 4.26753C9.91667 4.6448 10.0659 5.00662 10.3316 5.27339C10.5973 5.54016 10.9576 5.69003 11.3333 5.69003H24.0833C24.4591 5.69003 24.8194 5.54016 25.0851 5.27339C25.3507 5.00662 25.5 4.6448 25.5 4.26753C25.5 3.89025 25.3507 3.52843 25.0851 3.26166C24.8194 2.99489 24.4591 2.84502 24.0833 2.84502H11.3333ZM4.25 8.53505C3.87428 8.53505 3.51394 8.68492 3.24827 8.95169C2.98259 9.21847 2.83333 9.58029 2.83333 9.95756C2.83333 10.3348 2.98259 10.6967 3.24827 10.9634C3.51394 11.2302 3.87428 11.3801 4.25 11.3801H5.66667C6.04239 11.3801 6.40272 11.2302 6.6684 10.9634C6.93408 10.6967 7.08333 10.3348 7.08333 9.95756C7.08333 9.58029 6.93408 9.21847 6.6684 8.95169C6.40272 8.68492 6.04239 8.53505 5.66667 8.53505H4.25ZM11.3333 8.53505C10.9576 8.53505 10.5973 8.68492 10.3316 8.95169C10.0659 9.21847 9.91667 9.58029 9.91667 9.95756C9.91667 10.3348 10.0659 10.6967 10.3316 10.9634C10.5973 11.2302 10.9576 11.3801 11.3333 11.3801H24.0833C24.4591 11.3801 24.8194 11.2302 25.0851 10.9634C25.3507 10.6967 25.5 10.3348 25.5 9.95756C25.5 9.58029 25.3507 9.21847 25.0851 8.95169C24.8194 8.68492 24.4591 8.53505 24.0833 8.53505H11.3333ZM4.25 14.2251C3.87428 14.2251 3.51394 14.375 3.24827 14.6417C2.98259 14.9085 2.83333 15.2703 2.83333 15.6476C2.83333 16.0249 2.98259 16.3867 3.24827 16.6535C3.51394 16.9202 3.87428 17.0701 4.25 17.0701H5.66667C6.04239 17.0701 6.40272 16.9202 6.6684 16.6535C6.93408 16.3867 7.08333 16.0249 7.08333 15.6476C7.08333 15.2703 6.93408 14.9085 6.6684 14.6417C6.40272 14.375 6.04239 14.2251 5.66667 14.2251H4.25ZM11.3333 14.2251C10.9576 14.2251 10.5973 14.375 10.3316 14.6417C10.0659 14.9085 9.91667 15.2703 9.91667 15.6476C9.91667 16.0249 10.0659 16.3867 10.3316 16.6535C10.5973 16.9202 10.9576 17.0701 11.3333 17.0701H24.0833C24.4591 17.0701 24.8194 16.9202 25.0851 16.6535C25.3507 16.3867 25.5 16.0249 25.5 15.6476C25.5 15.2703 25.3507 14.9085 25.0851 14.6417C24.8194 14.375 24.4591 14.2251 24.0833 14.2251H11.3333Z" fill="white"/>
</svg>
