<svg width="153" height="107" viewBox="0 0 153 107" fill="none" xmlns="http://www.w3.org/2000/svg">
<path fill-rule="evenodd" clip-rule="evenodd" d="M15.3 0C11.2422 0 7.35057 1.61045 4.48127 4.47708C1.61196 7.34371 0 11.2317 0 15.2857V91.7143C0 95.7683 1.61196 99.6563 4.48127 102.523C7.35057 105.39 11.2422 107 15.3 107H137.7C141.758 107 145.649 105.39 148.519 102.523C151.388 99.6563 153 95.7683 153 91.7143V15.2857C153 11.2317 151.388 7.34371 148.519 4.47708C145.649 1.61045 141.758 0 137.7 0H15.3ZM22.95 15.2857C20.9211 15.2857 18.9753 16.0909 17.5406 17.5243C16.106 18.9576 15.3 20.9016 15.3 22.9286C15.3 24.9556 16.106 26.8996 17.5406 28.3329C18.9753 29.7662 20.9211 30.5714 22.95 30.5714H30.6C32.6289 30.5714 34.5747 29.7662 36.0094 28.3329C37.444 26.8996 38.25 24.9556 38.25 22.9286C38.25 20.9016 37.444 18.9576 36.0094 17.5243C34.5747 16.0909 32.6289 15.2857 30.6 15.2857H22.95ZM61.2 15.2857C59.1711 15.2857 57.2253 16.0909 55.7906 17.5243C54.356 18.9576 53.55 20.9016 53.55 22.9286C53.55 24.9556 54.356 26.8996 55.7906 28.3329C57.2253 29.7662 59.1711 30.5714 61.2 30.5714H130.05C132.079 30.5714 134.025 29.7662 135.459 28.3329C136.894 26.8996 137.7 24.9556 137.7 22.9286C137.7 20.9016 136.894 18.9576 135.459 17.5243C134.025 16.0909 132.079 15.2857 130.05 15.2857H61.2ZM22.95 45.8571C20.9211 45.8571 18.9753 46.6624 17.5406 48.0957C16.106 49.529 15.3 51.473 15.3 53.5C15.3 55.527 16.106 57.471 17.5406 58.9043C18.9753 60.3376 20.9211 61.1429 22.95 61.1429H30.6C32.6289 61.1429 34.5747 60.3376 36.0094 58.9043C37.444 57.471 38.25 55.527 38.25 53.5C38.25 51.473 37.444 49.529 36.0094 48.0957C34.5747 46.6624 32.6289 45.8571 30.6 45.8571H22.95ZM61.2 45.8571C59.1711 45.8571 57.2253 46.6624 55.7906 48.0957C54.356 49.529 53.55 51.473 53.55 53.5C53.55 55.527 54.356 57.471 55.7906 58.9043C57.2253 60.3376 59.1711 61.1429 61.2 61.1429H130.05C132.079 61.1429 134.025 60.3376 135.459 58.9043C136.894 57.471 137.7 55.527 137.7 53.5C137.7 51.473 136.894 49.529 135.459 48.0957C134.025 46.6624 132.079 45.8571 130.05 45.8571H61.2ZM22.95 76.4286C20.9211 76.4286 18.9753 77.2338 17.5406 78.6671C16.106 80.1004 15.3 82.0444 15.3 84.0714C15.3 86.0984 16.106 88.0424 17.5406 89.4757C18.9753 90.9091 20.9211 91.7143 22.95 91.7143H30.6C32.6289 91.7143 34.5747 90.9091 36.0094 89.4757C37.444 88.0424 38.25 86.0984 38.25 84.0714C38.25 82.0444 37.444 80.1004 36.0094 78.6671C34.5747 77.2338 32.6289 76.4286 30.6 76.4286H22.95ZM61.2 76.4286C59.1711 76.4286 57.2253 77.2338 55.7906 78.6671C54.356 80.1004 53.55 82.0444 53.55 84.0714C53.55 86.0984 54.356 88.0424 55.7906 89.4757C57.2253 90.9091 59.1711 91.7143 61.2 91.7143H130.05C132.079 91.7143 134.025 90.9091 135.459 89.4757C136.894 88.0424 137.7 86.0984 137.7 84.0714C137.7 82.0444 136.894 80.1004 135.459 78.6671C134.025 77.2338 132.079 76.4286 130.05 76.4286H61.2Z" fill="black"/>
</svg>
