<svg width="91" height="91" viewBox="0 0 91 91" fill="none" xmlns="http://www.w3.org/2000/svg">
<path d="M45.0625 19.3125C41.8795 19.3125 38.7679 20.2564 36.1213 22.0248C33.4747 23.7932 31.4119 26.3067 30.1938 29.2474C28.9757 32.1882 28.657 35.4241 29.278 38.546C29.899 41.6679 31.4318 44.5355 33.6825 46.7863C35.9333 49.037 38.8009 50.5698 41.9228 51.1908C45.0447 51.8117 48.2806 51.493 51.2213 50.2749C54.1621 49.0568 56.6756 46.9941 58.444 44.3475C60.2124 41.7009 61.1563 38.5893 61.1563 35.4063C61.1563 31.1379 59.4607 27.0444 56.4425 24.0263C53.4243 21.0081 49.3308 19.3125 45.0625 19.3125Z" fill="black"/>
<path d="M45.0625 0C36.15 0 27.4376 2.64287 20.0271 7.5944C12.6166 12.5459 6.84087 19.5837 3.4302 27.8178C0.0195248 36.0519 -0.872863 45.1125 0.865884 53.8538C2.60463 62.595 6.89642 70.6244 13.1985 76.9265C19.5006 83.2286 27.53 87.5204 36.2713 89.2591C45.0125 90.9979 54.0731 90.1055 62.3072 86.6948C70.5413 83.2841 77.5791 77.5084 82.5306 70.0979C87.4822 62.6874 90.125 53.975 90.125 45.0625C90.1114 33.1154 85.3594 21.6615 76.9115 13.2136C68.4636 4.76565 57.0097 0.0136305 45.0625 0V0ZM70.7868 73.7931C70.7226 69.5711 69.0025 65.5434 65.997 62.5776C62.9915 59.6118 58.9412 57.9455 54.7188 57.9375H35.4063C31.1839 57.9455 27.1336 59.6118 24.1281 62.5776C21.1226 65.5434 19.4024 69.5711 19.3383 73.7931C13.5013 68.5811 9.38503 61.7191 7.53458 54.1158C5.68414 46.5124 6.18678 38.5263 8.97595 31.215C11.7651 23.9036 16.7093 17.6119 23.1537 13.1729C29.5981 8.73397 37.2388 6.35711 45.0641 6.35711C52.8894 6.35711 60.5302 8.73397 66.9746 13.1729C73.419 17.6119 78.3631 23.9036 81.1523 31.215C83.9415 38.5263 84.4441 46.5124 82.5937 54.1158C80.7432 61.7191 76.627 68.5811 70.79 73.7931H70.7868Z" fill="black"/>
</svg>
