<svg width="26" height="26" viewBox="0 0 26 26" fill="none" xmlns="http://www.w3.org/2000/svg">
<path d="M4.5 0.144165C3.37283 0.144165 2.29183 0.593778 1.4948 1.39409C0.697767 2.19441 0.25 3.27987 0.25 4.41169V21.4818C0.25 22.6136 0.697767 23.6991 1.4948 24.4994C2.29183 25.2997 3.37283 25.7493 4.5 25.7493H11.5833C11.9591 25.7493 12.3194 25.5995 12.5851 25.3327C12.8507 25.0659 13 24.7041 13 24.3268C13 23.9495 12.8507 23.5877 12.5851 23.3209C12.3194 23.0542 11.9591 22.9043 11.5833 22.9043H4.5C4.12428 22.9043 3.76394 22.7544 3.49827 22.4877C3.23259 22.2209 3.08333 21.8591 3.08333 21.4818V4.41169C3.08333 4.03442 3.23259 3.6726 3.49827 3.40583C3.76394 3.13905 4.12428 2.98918 4.5 2.98918H11.5833C11.9591 2.98918 12.3194 2.83931 12.5851 2.57254C12.8507 2.30577 13 1.94395 13 1.56667C13 1.1894 12.8507 0.82758 12.5851 0.560808C12.3194 0.294036 11.9591 0.144165 11.5833 0.144165H4.5Z" fill="white"/>
<path d="M17.6651 5.24694C17.9307 4.98026 18.291 4.83044 18.6667 4.83044C19.0423 4.83044 19.4026 4.98026 19.6683 5.24694L25.3349 10.937C25.6005 11.2037 25.7497 11.5655 25.7497 11.9427C25.7497 12.3199 25.6005 12.6816 25.3349 12.9484L19.6683 18.6384C19.4011 18.8976 19.0432 19.0409 18.6718 19.0377C18.3003 19.0345 17.945 18.8848 17.6823 18.6211C17.4197 18.3574 17.2707 18.0006 17.2675 17.6276C17.2642 17.2546 17.407 16.8953 17.6651 16.627L20.9135 13.3652H10.1667C9.79094 13.3652 9.43061 13.2153 9.16493 12.9485C8.89926 12.6818 8.75 12.32 8.75 11.9427C8.75 11.5654 8.89926 11.2036 9.16493 10.9368C9.43061 10.67 9.79094 10.5202 10.1667 10.5202H20.9135L17.6651 7.25836C17.3995 6.9916 17.2503 6.62985 17.2503 6.25265C17.2503 5.87545 17.3995 5.5137 17.6651 5.24694Z" fill="white"/>
</svg>
