<svg width="31" height="26" viewBox="0 0 31 26" fill="none" xmlns="http://www.w3.org/2000/svg">
<path d="M12.1663 0.244873C10.6634 0.244873 9.22211 0.844357 8.1594 1.91145C7.0967 2.97853 6.49967 4.42582 6.49967 5.93491C6.49967 7.444 7.0967 8.89128 8.1594 9.95837C9.22211 11.0255 10.6634 11.6249 12.1663 11.6249C13.6692 11.6249 15.1106 11.0255 16.1733 9.95837C17.236 8.89128 17.833 7.444 17.833 5.93491C17.833 4.42582 17.236 2.97853 16.1733 1.91145C15.1106 0.844357 13.6692 0.244873 12.1663 0.244873ZM12.1663 3.08989C12.9178 3.08989 13.6385 3.38963 14.1698 3.92318C14.7012 4.45672 14.9997 5.18036 14.9997 5.93491C14.9997 6.68945 14.7012 7.41309 14.1698 7.94664C13.6385 8.48018 12.9178 8.77993 12.1663 8.77993C11.4149 8.77993 10.6942 8.48018 10.1629 7.94664C9.63152 7.41309 9.33301 6.68945 9.33301 5.93491C9.33301 5.18036 9.63152 4.45672 10.1629 3.92318C10.6942 3.38963 11.4149 3.08989 12.1663 3.08989ZM22.083 11.6249C21.8563 11.6249 21.743 11.7387 21.743 11.9663L21.3747 13.7587C21.063 14.0148 20.6097 14.2424 20.2697 14.47L18.4563 13.7587C18.343 13.7587 18.1163 13.7587 18.003 13.901L16.643 16.4046C16.5297 16.5184 16.5297 16.746 16.7563 16.8598L18.2297 18.0262V19.4487L16.7563 20.6152C16.643 20.729 16.5297 20.9566 16.643 21.0704L18.003 23.574C18.1163 23.7163 18.343 23.7163 18.4563 23.7163L20.2697 23.005C20.6097 23.2326 21.063 23.4602 21.3747 23.7163L21.743 25.5086C21.743 25.7362 21.8563 25.85 22.083 25.85H24.9163C25.0297 25.85 25.2563 25.7362 25.2563 25.5086L25.483 23.7163C25.9363 23.4602 26.3897 23.2326 26.7297 23.005L28.458 23.7163C28.6563 23.7163 28.883 23.7163 28.883 23.574L30.3563 21.0704C30.4697 20.9566 30.3563 20.729 30.243 20.6152L28.7697 19.4487V18.0262L30.243 16.8598C30.3563 16.746 30.4697 16.5184 30.3563 16.4046L28.883 13.901C28.883 13.7587 28.6563 13.7587 28.458 13.7587L26.7297 14.47C26.3897 14.2424 25.9363 14.0148 25.483 13.7587L25.2563 11.9663C25.2563 11.7387 25.0297 11.6249 24.9163 11.6249H22.083ZM12.1663 13.0475C8.38384 13.0475 0.833008 14.9394 0.833008 18.7375V23.005H14.5322C14.1355 22.1657 13.8522 21.2553 13.7105 20.3022H3.52467V18.7375C3.52467 17.8271 7.95884 15.7502 12.1663 15.7502C12.7755 15.7502 13.3988 15.8071 14.008 15.8925C14.2913 14.9821 14.6738 14.1286 15.1697 13.3462C14.0647 13.1613 13.0163 13.0475 12.1663 13.0475ZM23.5563 16.6037C24.6897 16.6037 25.6247 17.5426 25.6247 18.7944C25.6247 19.9324 24.6897 20.8713 23.5563 20.8713C22.3097 20.8713 21.3747 19.9324 21.3747 18.7944C21.3747 17.5426 22.3097 16.6037 23.5563 16.6037Z" fill="#F8F8F8"/>
</svg>
