<svg width="68" height="65" viewBox="0 0 68 65" fill="none" xmlns="http://www.w3.org/2000/svg">
<path d="M34 6.40932C26.7861 6.40932 19.8677 9.11039 14.7667 13.9183C9.66571 18.7262 6.8 25.2472 6.8 32.0466C6.8 38.8461 9.66571 45.367 14.7667 50.1749C19.8677 54.9829 26.7861 57.6839 34 57.6839C41.2139 57.6839 48.1323 54.9829 53.2333 50.1749C58.3343 45.367 61.2 38.8461 61.2 32.0466C61.2 25.2472 58.3343 18.7262 53.2333 13.9183C48.1323 9.11039 41.2139 6.40932 34 6.40932V6.40932ZM0 32.0466C0 14.3473 15.2218 0 34 0C52.7782 0 68 14.3473 68 32.0466C68 49.746 52.7782 64.0932 34 64.0932C15.2218 64.0932 0 49.746 0 32.0466Z" fill="white"/>
<path d="M34 19.2279C32.6605 19.2279 31.3342 19.4766 30.0966 19.9597C28.8591 20.4429 27.7347 21.1511 26.7875 22.0438C25.8404 22.9365 25.089 23.9964 24.5764 25.1628C24.0638 26.3292 23.8 27.5794 23.8 28.8419C23.8 30.1044 24.0638 31.3546 24.5764 32.521C25.089 33.6875 25.8404 34.7473 26.7875 35.64C27.7347 36.5328 28.8591 37.2409 30.0966 37.7241C31.3342 38.2072 32.6605 38.4559 34 38.4559C36.7052 38.4559 39.2996 37.443 41.2125 35.64C43.1254 33.8371 44.2 31.3917 44.2 28.8419C44.2 26.2921 43.1254 23.8468 41.2125 22.0438C39.2996 20.2408 36.7052 19.2279 34 19.2279V19.2279ZM17 28.8419C17 24.5923 18.7911 20.5167 21.9792 17.5117C25.1673 14.5068 29.4913 12.8186 34 12.8186C38.5087 12.8186 42.8327 14.5068 46.0208 17.5117C49.2089 20.5167 51 24.5923 51 28.8419C51 33.0916 49.2089 37.1672 46.0208 40.1721C42.8327 43.1771 38.5087 44.8652 34 44.8652C29.4913 44.8652 25.1673 43.1771 21.9792 40.1721C18.7911 37.1672 17 33.0916 17 28.8419V28.8419Z" fill="white"/>
<path d="M34.0001 44.8653C30.484 44.8653 27.0542 45.8924 24.1828 47.8052C21.3114 49.7179 19.1394 52.4224 17.9657 55.5465C17.8265 55.9544 17.6019 56.3318 17.3052 56.6565C17.0085 56.9811 16.6458 57.2464 16.2384 57.4366C15.831 57.6268 15.3873 57.7381 14.9335 57.7639C14.4798 57.7896 14.0251 57.7294 13.5964 57.5866C13.1678 57.4439 12.7739 57.2216 12.438 56.9328C12.1021 56.6441 11.831 56.2948 11.6409 55.9056C11.4507 55.5164 11.3453 55.0952 11.3308 54.6669C11.3164 54.2386 11.3932 53.812 11.5567 53.4121C13.1985 49.0385 16.2383 45.252 20.2576 42.5739C24.2768 39.8958 29.078 38.4578 34.0001 38.4578C38.9223 38.4578 43.7235 39.8958 47.7427 42.5739C51.762 45.252 54.8017 49.0385 56.4435 53.4121C56.6071 53.812 56.6839 54.2386 56.6694 54.6669C56.655 55.0952 56.5496 55.5164 56.3594 55.9056C56.1692 56.2948 55.8982 56.6441 55.5623 56.9328C55.2264 57.2216 54.8325 57.4439 54.4038 57.5866C53.9752 57.7294 53.5205 57.7896 53.0667 57.7639C52.6129 57.7381 52.1692 57.6268 51.7619 57.4366C51.3545 57.2464 50.9917 56.9811 50.6951 56.6565C50.3984 56.3318 50.1738 55.9544 50.0345 55.5465C48.8613 52.4221 46.6894 49.7174 43.8179 47.8046C40.9464 45.8917 37.5164 44.8649 34.0001 44.8653V44.8653Z" fill="white"/>
</svg>
